<svg xmlns="http://www.w3.org/2000/svg" viewBox="0 0 132 132"><defs><style>.cls-1{fill:#fff;}</style></defs><title>addSheet</title><g id="Layer_2" data-name="Layer 2"><g id="Layer_1-2" data-name="Layer 1"><rect class="cls-1" x="0.5" y="0.5" width="131" height="131"/><path d="M131,1V131H1V1H131m1-1H0V132H132V0Z"/><rect x="24.6" y="59.16" width="81.8" height="14.68"/><path d="M105.9,59.66V73.34H25.1V59.66h80.8m1-1H24.1V74.34h82.8V58.66Z"/><rect x="24.6" y="84.82" width="81.8" height="14.68"/><path d="M105.9,85.32V99H25.1V85.32h80.8m1-1H24.1V100h82.8V84.32Z"/><rect x="24.6" y="33.5" width="81.8" height="14.68"/><path d="M105.9,34V47.68H25.1V34h80.8m1-1H24.1V48.68h82.8V33Z"/></g></g></svg>