<svg xmlns="http://www.w3.org/2000/svg" xmlns:xlink="http://www.w3.org/1999/xlink" viewBox="2765.5 634.5 22.762 22.762">
  <defs>
    <style>
      .cls-1 {
        fill: #fff;
        stroke: #fff;
      }

      .cls-2 {
        filter: url(#Rectangle_7);
      }
    </style>
    <filter id="Rectangle_7" x="2765.5" y="634.5" width="22.762" height="22.762" filterUnits="userSpaceOnUse">
      <feOffset dy="1" input="SourceAlpha"/>
      <feGaussianBlur stdDeviation="0.5" result="blur"/>
      <feFlood flood-opacity="0.161"/>
      <feComposite operator="in" in2="blur"/>
      <feComposite in="SourceGraphic"/>
    </filter>
  </defs>
  <g id="AddItem" transform="translate(2767 635)">
    <g class="cls-2" transform="matrix(1, 0, 0, 1, -2767, -635)">
      <rect id="Rectangle_7-2" data-name="Rectangle 7" width="19.762" height="19.762" transform="translate(2767 635)"/>
    </g>
    <g id="Group_3" data-name="Group 3" transform="translate(2.406 1.989)">
      <path id="Path_3" data-name="Path 3" class="cls-1" d="M8.066,7A1.087,1.087,0,0,0,7,8.105v5.157a1.087,1.087,0,0,0,1.066,1.105h4.973A1.087,1.087,0,0,0,14.1,13.262V8.105A1.087,1.087,0,0,0,13.038,7Zm0,.368h4.973a.718.718,0,0,1,.71.737v5.157a.718.718,0,0,1-.71.737H8.066a.718.718,0,0,1-.71-.737V8.105A.718.718,0,0,1,8.066,7.368ZM18.7,8.1a.182.182,0,0,0-.155.19V10.5H16.413a.171.171,0,0,0-.033,0,.183.183,0,0,0-.161.2.18.18,0,0,0,.194.167h2.131v2.21a.178.178,0,1,0,.355,0v-2.21h2.131a.184.184,0,0,0,0-.368H18.9V8.289a.188.188,0,0,0-.057-.143A.174.174,0,0,0,18.7,8.1ZM8.066,15.472A1.087,1.087,0,0,0,7,16.577v5.157a1.087,1.087,0,0,0,1.066,1.105h4.973A1.087,1.087,0,0,0,14.1,21.734V16.577a1.087,1.087,0,0,0-1.066-1.105Zm8.17,0a1.087,1.087,0,0,0-1.066,1.105v5.157a1.087,1.087,0,0,0,1.066,1.105h4.973a1.088,1.088,0,0,0,1.066-1.105V16.577a1.087,1.087,0,0,0-1.066-1.105Zm-8.17.368h4.973a.718.718,0,0,1,.71.737v5.157a.718.718,0,0,1-.71.737H8.066a.718.718,0,0,1-.71-.737V16.577A.718.718,0,0,1,8.066,15.84Zm8.17,0h4.973a.718.718,0,0,1,.71.737v5.157a.718.718,0,0,1-.71.737H16.235a.718.718,0,0,1-.71-.737V16.577A.718.718,0,0,1,16.235,15.84Z" transform="translate(-7 -7)"/>
    </g>
  </g>
</svg>
