<svg xmlns="http://www.w3.org/2000/svg" viewBox="-395.24 223 295.859 83.062">
  <defs>
    <style>
      .cls-1 {
        font-size: 50px;
        font-family: SitkaBanner, Sitka Banner;

      }
    </style>
  </defs>
  <g id="Group_3" data-name="Group 3" transform="translate(-445)">
    <g id="noun_334228_cc" transform="translate(487 185)">
      <path id="Path_1" data-name="Path 1" d="M0,0V83.062H72.679V41.531H31.148V0ZM41.531,0V31.148H72.679Z" transform="translate(-437.24 38)"/>
      <text id="PaperLess" class="cls-1" transform="translate(-348 93)"><tspan x="0" y="0">PaperLess</tspan></text>
    </g>
    <g id="noun_115122_cc" transform="translate(371 288.034)">
      <g id="Group_2" data-name="Group 2" transform="translate(-40.579 -43.034)">
        <path id="Path_2" data-name="Path 2" d="M26.8,19.565A7.7,7.7,0,0,1,20.788,27a.672.672,0,0,1-.8-.662.647.647,0,0,1,.521-.641,6.256,6.256,0,1,0-2.607,0,.647.647,0,0,1,.522.641.664.664,0,0,1-.8.662A7.6,7.6,0,1,1,26.8,19.565Zm-5.233-3.97a.666.666,0,1,1-.942.942,2.053,2.053,0,0,0-1.423-.581,2.007,2.007,0,0,0-2,1.985v3.248a2.011,2.011,0,0,0,2,2,2.053,2.053,0,0,0,1.423-.581.666.666,0,1,1,.942.942,3.392,3.392,0,0,1-2.366.982,3.337,3.337,0,0,1-3.328-3.348V17.941A3.333,3.333,0,0,1,19.2,14.613,3.372,3.372,0,0,1,21.57,15.595Z" transform="translate(-11.605 -11.966)"/>
      </g>
    </g>
  </g>
</svg>
