<svg xmlns="http://www.w3.org/2000/svg" viewBox="0 0 132 132"><defs><style>.cls-1{fill:#fff;}</style></defs><title>Asset 16</title><g id="Layer_2" data-name="Layer 2"><g id="Layer_1-2" data-name="Layer 1"><rect class="cls-1" x="0.5" y="0.5" width="131" height="131"/><path d="M131,1V131H1V1H131m1-1H0V132H132V0Z"/><rect x="19.36" y="18.5" width="9.71" height="96"/><path d="M28.56,19v95h-8.7V19h8.7m1-1H18.86v97h10.7V18Z"/><rect x="53.83" y="-1.78" width="1.7" height="50.53" transform="translate(22.7 73.68) rotate(-80.73)"/><path d="M30.3,19.15l48.89,8-.12.7-48.88-8,.11-.7M29.47,18,29,20.67,79.9,29l.43-2.67L29.47,18Z"/><rect x="28.78" y="106.02" width="50.53" height="1.7" transform="translate(-26.37 18.12) rotate(-15.35)"/><path d="M77.84,100l.18.68L30.26,113.77l-.19-.68L77.84,100m.7-1.23-49.7,13.65.72,2.61,49.69-13.65-.71-2.61Z"/><polyline points="38.6 57.86 81.77 44.59 59 56.21 113.99 69.71 110.87 82.43 58.23 69.51 55.88 68.93 70.56 90.21"/></g></g></svg>