<?xml version="1.0" encoding="iso-8859-1"?>
<!-- Generator: Adobe Illustrator 18.1.1, SVG Export Plug-In . SVG Version: 6.00 Build 0)  -->
<svg version="1.1" id="Capa_1" xmlns="http://www.w3.org/2000/svg" xmlns:xlink="http://www.w3.org/1999/xlink" x="0px" y="0px"
	 viewBox="0 0 249.745 249.745" style="enable-background:new 0 0 249.745 249.745;" xml:space="preserve">
<g>
	<g>
		<path style="fill:#010002;" d="M200.43,213.047c0,13.641-11.096,24.731-24.726,24.731H35.604
			c-13.636,0-24.726-11.09-24.726-24.731V72.953c0-13.63,11.096-24.726,24.726-24.726h118.098l10.878-10.878H35.604
			C15.969,37.349,0,53.324,0,72.953v140.099c0,19.635,15.975,35.61,35.604,35.61h140.099c19.635,0,35.604-15.975,35.604-35.61
			V88.074l-10.878,10.878C200.429,98.952,200.429,213.047,200.43,213.047z"/>
		<path style="fill:#010002;" d="M244.181,6.477c-7.19-7.196-19.727-7.19-26.923,0L108.286,115.443
			c-1.12,1.115-4.09,4.085-6.065,27.092l-0.555,6.456l6.451-0.571c23.062-2.029,25.982-4.95,27.081-6.048L244.176,33.395
			C251.6,25.971,251.6,13.896,244.181,6.477z M236.491,25.704L127.889,134.306c-1.904,0.81-7.87,1.822-14.142,2.589
			c0.751-6.26,1.762-12.227,2.589-14.114L224.954,14.163c3.084-3.079,8.452-3.079,11.542,0
			C239.667,17.345,239.667,22.522,236.491,25.704z"/>
	</g>
</g>
<g>
</g>
<g>
</g>
<g>
</g>
<g>
</g>
<g>
</g>
<g>
</g>
<g>
</g>
<g>
</g>
<g>
</g>
<g>
</g>
<g>
</g>
<g>
</g>
<g>
</g>
<g>
</g>
<g>
</g>
</svg>
