<svg xmlns="http://www.w3.org/2000/svg" viewBox="0 0 132 132"><defs><style>.cls-1{fill:#fff;}</style></defs><title>stock_1</title><g id="Layer_2" data-name="Layer 2"><g id="Layer_1-2" data-name="Layer 1"><rect class="cls-1" x="0.5" y="0.5" width="131" height="131"/><path d="M131,1V131H1V1H131m1-1H0V132H132V0Z"/><path d="M32.69,79.55l10.07-.88a22.21,22.21,0,0,0,3.32,9.93,18.29,18.29,0,0,0,8.12,6.27,30.77,30.77,0,0,0,12.37,2.39,29.66,29.66,0,0,0,10.78-1.82,15,15,0,0,0,7-5,11.56,11.56,0,0,0,2.28-6.91,10.53,10.53,0,0,0-2.2-6.62q-2.2-2.84-7.26-4.76a143.6,143.6,0,0,0-14.35-3.93q-11.12-2.67-15.57-5a21.86,21.86,0,0,1-8.61-7.51,18.46,18.46,0,0,1-2.83-10,20.49,20.49,0,0,1,3.47-11.41A21.47,21.47,0,0,1,49.36,26.2a38.39,38.39,0,0,1,14.79-2.75A40.47,40.47,0,0,1,80,26.34a22.78,22.78,0,0,1,10.53,8.5,24.33,24.33,0,0,1,4,12.7l-10.23.77q-.82-7.64-5.58-11.55t-14-3.9q-9.68,0-14.11,3.55A10.62,10.62,0,0,0,46.06,45a9.17,9.17,0,0,0,3.13,7.15q3.08,2.8,16.09,5.74T83.12,63q7,3.24,10.4,8.22a20.07,20.07,0,0,1,3.35,11.46,22,22,0,0,1-3.68,12.13,24.29,24.29,0,0,1-10.59,8.86,37,37,0,0,1-15.53,3.16q-10.95,0-18.35-3.19A25.69,25.69,0,0,1,37.12,94,27.19,27.19,0,0,1,32.69,79.55Z"/></g></g></svg>