<svg xmlns="http://www.w3.org/2000/svg" viewBox="0 0 132 132"><defs><style>.cls-1{fill:#fff;}</style></defs><title>x</title><g id="Layer_2" data-name="Layer 2"><g id="Layer_1-2" data-name="Layer 1"><rect class="cls-1" x="0.5" y="0.5" width="131" height="131"/><path d="M131,1V131H1V1H131m1-1H0V132H132V0Z"/><rect x="60.31" y="23.6" width="14.68" height="81.8" transform="translate(-25.8 66.72) rotate(-45)"/><path d="M43.92,31.1l57.13,57.13L91.38,97.9,34.24,40.77l9.68-9.67m0-1.42L32.83,40.77,91.38,99.32l11.08-11.09L43.92,29.68Z"/><rect x="27.53" y="57.97" width="80.24" height="14.38" transform="translate(-26.26 66.92) rotate(-45)"/><path d="M90.93,32.41l9.46,9.46-56,56L34.9,88.44l56-56m0-1.41L33.49,88.44,44.36,99.32l57.45-57.45L90.93,31Z"/></g></g></svg>